<svg id="svg" version="1.1" xmlns="http://www.w3.org/2000/svg" xmlns:xlink="http://www.w3.org/1999/xlink" width="400" height="400" viewBox="0, 0, 400,400"><g id="svgg"><path id="path0" d="M0.000 121.400 L 0.000 242.800 34.629 242.800 C 64.107 242.800,69.342 242.885,69.829 243.371 C 70.686 244.229,70.686 306.571,69.829 307.429 C 69.342 307.915,64.107 308.000,34.629 308.000 L 0.000 308.000 0.000 354.000 L 0.000 400.000 84.000 400.000 L 168.000 400.000 168.000 321.971 C 168.000 254.880,168.080 243.863,168.571 243.371 C 169.429 242.514,231.371 242.514,232.229 243.371 C 232.720 243.863,232.800 254.880,232.800 321.971 L 232.800 400.000 316.400 400.000 L 400.000 400.000 400.000 354.000 L 400.000 308.000 359.571 308.000 C 325.067 308.000,319.059 307.916,318.571 307.429 C 318.086 306.943,318.000 302.130,318.000 275.400 C 318.000 248.670,318.086 243.857,318.571 243.371 C 319.059 242.884,325.067 242.800,359.571 242.800 L 400.000 242.800 400.000 121.400 L 400.000 0.000 200.000 0.000 L 0.000 0.000 0.000 121.400 " stroke="none" fill="#a4d454" fill-rule="evenodd"></path><path id="path1" d="M0.000 243.200 C 0.000 243.464,11.867 243.600,34.800 243.600 L 69.600 243.600 69.600 275.400 L 69.600 307.200 34.800 307.200 C 11.867 307.200,0.000 307.336,0.000 307.600 C 0.000 308.305,69.122 308.135,69.829 307.429 C 70.686 306.571,70.686 244.229,69.829 243.371 C 69.122 242.665,0.000 242.495,0.000 243.200 M168.500 243.398 C 167.855 244.131,167.756 400.000,168.400 400.000 C 168.665 400.000,168.800 373.667,168.800 321.800 L 168.800 243.600 200.400 243.600 L 232.000 243.600 232.000 321.800 C 232.000 373.667,232.135 400.000,232.400 400.000 C 233.108 400.000,232.937 244.080,232.229 243.371 C 231.374 242.517,169.253 242.543,168.500 243.398 M318.500 243.398 C 317.707 244.299,317.777 306.634,318.571 307.429 C 319.279 308.136,400.000 308.306,400.000 307.600 C 400.000 307.336,386.200 307.200,359.400 307.200 L 318.800 307.200 318.800 275.400 L 318.800 243.600 359.400 243.600 C 386.200 243.600,400.000 243.464,400.000 243.200 C 400.000 242.497,319.120 242.694,318.500 243.398 " stroke="none" fill="#a8d454" fill-rule="evenodd"></path><path id="path2" d="M0.000 243.200 C 0.000 243.464,11.867 243.600,34.800 243.600 L 69.600 243.600 69.600 275.400 L 69.600 307.200 34.800 307.200 C 11.867 307.200,0.000 307.336,0.000 307.600 C 0.000 308.305,69.122 308.135,69.829 307.429 C 70.686 306.571,70.686 244.229,69.829 243.371 C 69.122 242.665,0.000 242.495,0.000 243.200 M168.500 243.398 C 167.855 244.131,167.756 400.000,168.400 400.000 C 168.665 400.000,168.800 373.667,168.800 321.800 L 168.800 243.600 200.400 243.600 L 232.000 243.600 232.000 321.800 C 232.000 373.667,232.135 400.000,232.400 400.000 C 233.108 400.000,232.937 244.080,232.229 243.371 C 231.374 242.517,169.253 242.543,168.500 243.398 M318.500 243.398 C 317.707 244.299,317.777 306.634,318.571 307.429 C 319.279 308.136,400.000 308.306,400.000 307.600 C 400.000 307.336,386.200 307.200,359.400 307.200 L 318.800 307.200 318.800 275.400 L 318.800 243.600 359.400 243.600 C 386.200 243.600,400.000 243.464,400.000 243.200 C 400.000 242.497,319.120 242.694,318.500 243.398 " stroke="none" fill="#a8d454" fill-rule="evenodd"></path><path id="path3" d="M0.000 243.200 C 0.000 243.464,11.867 243.600,34.800 243.600 L 69.600 243.600 69.600 275.400 L 69.600 307.200 34.800 307.200 C 11.867 307.200,0.000 307.336,0.000 307.600 C 0.000 308.305,69.122 308.135,69.829 307.429 C 70.686 306.571,70.686 244.229,69.829 243.371 C 69.122 242.665,0.000 242.495,0.000 243.200 M168.500 243.398 C 167.855 244.131,167.756 400.000,168.400 400.000 C 168.665 400.000,168.800 373.667,168.800 321.800 L 168.800 243.600 200.400 243.600 L 232.000 243.600 232.000 321.800 C 232.000 373.667,232.135 400.000,232.400 400.000 C 233.108 400.000,232.937 244.080,232.229 243.371 C 231.374 242.517,169.253 242.543,168.500 243.398 M318.500 243.398 C 317.707 244.299,317.777 306.634,318.571 307.429 C 319.279 308.136,400.000 308.306,400.000 307.600 C 400.000 307.336,386.200 307.200,359.400 307.200 L 318.800 307.200 318.800 275.400 L 318.800 243.600 359.400 243.600 C 386.200 243.600,400.000 243.464,400.000 243.200 C 400.000 242.497,319.120 242.694,318.500 243.398 " stroke="none" fill="#a8d454" fill-rule="evenodd"></path><path id="path4" d="M0.000 243.200 C 0.000 243.464,11.867 243.600,34.800 243.600 L 69.600 243.600 69.600 275.400 L 69.600 307.200 34.800 307.200 C 11.867 307.200,0.000 307.336,0.000 307.600 C 0.000 308.305,69.122 308.135,69.829 307.429 C 70.686 306.571,70.686 244.229,69.829 243.371 C 69.122 242.665,0.000 242.495,0.000 243.200 M168.500 243.398 C 167.855 244.131,167.756 400.000,168.400 400.000 C 168.665 400.000,168.800 373.667,168.800 321.800 L 168.800 243.600 200.400 243.600 L 232.000 243.600 232.000 321.800 C 232.000 373.667,232.135 400.000,232.400 400.000 C 233.108 400.000,232.937 244.080,232.229 243.371 C 231.374 242.517,169.253 242.543,168.500 243.398 M318.500 243.398 C 317.707 244.299,317.777 306.634,318.571 307.429 C 319.279 308.136,400.000 308.306,400.000 307.600 C 400.000 307.336,386.200 307.200,359.400 307.200 L 318.800 307.200 318.800 275.400 L 318.800 243.600 359.400 243.600 C 386.200 243.600,400.000 243.464,400.000 243.200 C 400.000 242.497,319.120 242.694,318.500 243.398 " stroke="none" fill="#a8d454" fill-rule="evenodd"></path></g></svg>