<svg  id="svg" version="1.1" xmlns="http://www.w3.org/2000/svg" xmlns:xlink="http://www.w3.org/1999/xlink" viewBox="220.461 121.448 177.685 177.685" width="177.685" height="177.685">
  <path style="fill: rgb(216, 216, 216); stroke: rgb(0, 0, 0);" transform="matrix(0.747831, 0, 0, 0.747831, -43.374215, -42.626382)" d="M 457.066 219.4 L 486.134 219.4 L 492.269 263.797 A 77.22 77.22 0 0 1 509.596 270.975 L 545.327 243.918 L 565.882 264.473 L 538.825 300.204 A 77.22 77.22 0 0 1 546.003 317.531 L 590.4 323.666 L 590.4 352.734 L 546.003 358.869 A 77.22 77.22 0 0 1 538.825 376.196 L 565.882 411.927 L 545.327 432.482 L 509.596 405.425 A 77.22 77.22 0 0 1 492.269 412.603 L 486.134 457 L 457.066 457 L 450.931 412.603 A 77.22 77.22 0 0 1 433.604 405.425 L 397.873 432.482 L 377.319 411.927 L 404.375 376.196 A 77.22 77.22 0 0 1 397.197 358.869 L 352.8 352.734 L 352.8 323.666 L 397.197 317.531 A 77.22 77.22 0 0 1 404.375 300.204 L 377.319 264.473 L 397.873 243.918 L 433.604 270.975 A 77.22 77.22 0 0 1 450.931 263.797 Z M 471.6 302.56 A 35.64 35.64 0 0 0 471.6 373.84 A 35.64 35.64 0 0 0 471.6 302.56" data-bx-shape="cog 471.6 338.2 35.64 77.22 118.8 0.38 8 1@463453f6"></path>
</svg>